<svg width="24" height="24" viewBox="0 0 24 24" fill="none" xmlns="http://www.w3.org/2000/svg">
<mask id="mask0_127_534" style="mask-type:alpha" maskUnits="userSpaceOnUse" x="0" y="0" width="24" height="24">
<rect width="24" height="24" fill="#D9D9D9"/>
</mask>
<g mask="url(#mask0_127_534)">
<path d="M12.0001 14.6615C11.8796 14.6615 11.7675 14.6423 11.6636 14.6038C11.5598 14.5653 11.4611 14.4993 11.3675 14.4057L6.87325 9.91151C6.73478 9.77306 6.66395 9.59902 6.66075 9.38941C6.65753 9.17979 6.72837 9.00255 6.87325 8.85768C7.01812 8.71281 7.19375 8.64038 7.40015 8.64038C7.60655 8.64038 7.78218 8.71281 7.92705 8.85768L12.0001 12.9308L16.0732 8.85768C16.2117 8.71923 16.3857 8.6484 16.5953 8.64518C16.8049 8.64198 16.9822 8.71281 17.127 8.85768C17.2719 9.00255 17.3444 9.17819 17.3444 9.38461C17.3444 9.59101 17.2719 9.76664 17.127 9.91151L12.6328 14.4057C12.5392 14.4993 12.4405 14.5653 12.3367 14.6038C12.2328 14.6423 12.1207 14.6615 12.0001 14.6615Z" fill="white"/>
</g>
</svg>
