<svg width="19" height="19" viewBox="0 0 19 19" fill="none" xmlns="http://www.w3.org/2000/svg">
<path d="M9.72808 4.81658C7.18745 4.81658 5.13816 6.84878 5.13816 9.36824C5.13816 11.8877 7.18745 13.9199 9.72808 13.9199C12.2687 13.9199 14.318 11.8877 14.318 9.36824C14.318 6.84878 12.2687 4.81658 9.72808 4.81658ZM9.72808 12.3274C8.08625 12.3274 6.74403 11.0003 6.74403 9.36824C6.74403 7.73614 8.08226 6.40906 9.72808 6.40906C11.3739 6.40906 12.7121 7.73614 12.7121 9.36824C12.7121 11.0003 11.3699 12.3274 9.72808 12.3274ZM15.5763 4.63039C15.5763 5.22064 15.097 5.69205 14.5057 5.69205C13.9105 5.69205 13.4352 5.21668 13.4352 4.63039C13.4352 4.0441 13.9145 3.56873 14.5057 3.56873C15.097 3.56873 15.5763 4.0441 15.5763 4.63039ZM18.6163 5.70789C18.5484 4.28575 18.2208 3.02602 17.1702 1.98812C16.1236 0.950233 14.8533 0.625397 13.4192 0.554092C11.9411 0.470902 7.51102 0.470902 6.03298 0.554092C4.60287 0.621436 3.33256 0.946272 2.28195 1.98416C1.23134 3.02205 0.90777 4.28178 0.835866 5.70393C0.751977 7.16966 0.751977 11.5629 0.835866 13.0286C0.903776 14.4507 1.23134 15.7105 2.28195 16.7484C3.33256 17.7863 4.59888 18.1111 6.03298 18.1824C7.51102 18.2656 11.9411 18.2656 13.4192 18.1824C14.8533 18.115 16.1236 17.7902 17.1702 16.7484C18.2168 15.7105 18.5444 14.4507 18.6163 13.0286C18.7002 11.5629 18.7002 7.17362 18.6163 5.70789ZM16.7068 14.6013C16.3952 15.3777 15.792 15.9759 15.0051 16.2888C13.8266 16.7523 11.0304 16.6454 9.72808 16.6454C8.4258 16.6454 5.62552 16.7484 4.45107 16.2888C3.66811 15.9798 3.06491 15.3817 2.74933 14.6013C2.28195 13.4327 2.38981 10.6597 2.38981 9.36824C2.38981 8.07682 2.28594 5.29987 2.74933 4.13521C3.06092 3.35877 3.66412 2.7606 4.45107 2.44765C5.62951 1.98416 8.4258 2.09112 9.72808 2.09112C11.0304 2.09112 13.8306 1.98812 15.0051 2.44765C15.788 2.75664 16.3912 3.35481 16.7068 4.13521C17.1742 5.30383 17.0663 8.07682 17.0663 9.36824C17.0663 10.6597 17.1742 13.4366 16.7068 14.6013Z" fill="white"/>
</svg>
