<svg width="33" height="32" viewBox="0 0 33 32" fill="none" xmlns="http://www.w3.org/2000/svg">
<mask id="mask0_888_5670" style="mask-type:alpha" maskUnits="userSpaceOnUse" x="0" y="-1" width="33" height="33">
<rect x="0.338867" y="-0.00463867" width="32" height="32" fill="#D9D9D9"/>
</mask>
<g mask="url(#mask0_888_5670)">
<path d="M7.1592 27.3287C6.56689 27.3287 6.05985 27.1178 5.63807 26.696C5.21627 26.2742 5.00537 25.7672 5.00537 25.1749C5.00537 24.5826 5.21627 24.0755 5.63807 23.6537C6.05985 23.2319 6.56689 23.0211 7.1592 23.0211C7.75149 23.0211 8.25854 23.2319 8.68034 23.6537C9.10212 24.0755 9.313 24.5826 9.313 25.1749C9.313 25.7672 9.10212 26.2742 8.68034 26.696C8.25854 27.1178 7.75149 27.3287 7.1592 27.3287ZM24.8537 27.3287C24.4198 27.3287 24.0595 27.1658 23.773 26.84C23.4864 26.5142 23.3186 26.1284 23.2695 25.6826C23.0763 23.4757 22.5208 21.4078 21.6028 19.4787C20.6848 17.5496 19.4797 15.8389 17.9874 14.3466C16.4951 12.8543 14.7844 11.6492 12.8554 10.7313C10.9263 9.8133 8.85835 9.25774 6.6515 9.06458C6.20568 9.01514 5.81987 8.84623 5.49407 8.55785C5.16827 8.26945 5.00537 7.91103 5.00537 7.48259C5.00537 7.04794 5.1605 6.69271 5.47077 6.41689C5.78102 6.14104 6.14554 6.02108 6.56434 6.05699C9.21218 6.25014 11.6878 6.88902 13.9912 7.97362C16.2946 9.05824 18.3275 10.4817 20.0899 12.2441C21.8523 14.0065 23.2758 16.0394 24.3604 18.3428C25.445 20.6462 26.0839 23.1219 26.2771 25.7697C26.313 26.1885 26.1932 26.553 25.9178 26.8633C25.6424 27.1736 25.2877 27.3287 24.8537 27.3287ZM17.1592 27.3287C16.7404 27.3287 16.3844 27.177 16.0913 26.8736C15.7981 26.5701 15.6131 26.209 15.5362 25.7903C15.3703 24.6073 15.031 23.5142 14.5182 22.5108C14.0054 21.5073 13.3455 20.6022 12.5387 19.7954C11.7319 18.9885 10.8267 18.3287 9.8233 17.8159C8.81988 17.303 7.72672 16.9637 6.5438 16.7979C6.12503 16.721 5.76393 16.5359 5.4605 16.2428C5.15708 15.9496 5.00537 15.5944 5.00537 15.1771C5.00537 14.7431 5.1605 14.3864 5.47077 14.107C5.78102 13.8275 6.14554 13.7193 6.56434 13.7826C8.1438 13.9621 9.61987 14.3894 10.9925 15.0646C12.3652 15.7398 13.5857 16.6116 14.654 17.68C15.7224 18.7484 16.5942 19.9689 17.2694 21.3415C17.9446 22.7142 18.372 24.1903 18.5515 25.7697C18.6147 26.1885 18.5059 26.553 18.225 26.8633C17.9441 27.1736 17.5888 27.3287 17.1592 27.3287Z" fill="white"/>
</g>
</svg>
