<svg width="19" height="19" viewBox="0 0 19 19" fill="none" xmlns="http://www.w3.org/2000/svg">
<path d="M9.49331 0.420166C4.55149 0.420166 0.545166 4.42649 0.545166 9.36831C0.545166 14.3101 4.55149 18.3164 9.49331 18.3164C14.4351 18.3164 18.4414 14.3101 18.4414 9.36831C18.4414 4.42649 14.4351 0.420166 9.49331 0.420166ZM9.49331 2.0471C13.5366 2.0471 16.8145 5.32497 16.8145 9.36831C16.8145 13.4116 13.5366 16.6895 9.49331 16.6895C5.44997 16.6895 2.1721 13.4116 2.1721 9.36831C2.1721 5.32497 5.44997 2.0471 9.49331 2.0471ZM13.1706 5.84513C12.964 5.8213 12.7044 5.87793 12.4143 5.98257C11.8843 6.17373 5.11023 9.05022 4.71895 9.21657C4.34842 9.37439 3.99725 9.54638 3.99684 9.7949C3.99684 9.96979 4.10055 10.0686 4.38689 10.1707C4.68462 10.2772 5.43544 10.5042 5.87878 10.6266C6.30585 10.7442 6.79151 10.6417 7.06403 10.4725C7.3524 10.2932 10.6845 8.06371 10.9232 7.86847C11.162 7.67324 11.3528 7.92387 11.1576 8.11951C10.9623 8.31515 8.675 10.5336 8.3732 10.8411C8.00714 11.2145 8.26735 11.6013 8.51301 11.7563C8.79325 11.9332 10.8108 13.286 11.1147 13.5032C11.4185 13.7204 11.7261 13.8185 12.0084 13.8185C12.2907 13.8185 12.4392 13.4465 12.5796 13.0154C12.7443 12.5106 13.5159 7.47783 13.6107 6.48622C13.6396 6.18564 13.5447 5.98585 13.3589 5.89677C13.3026 5.86982 13.2395 5.85308 13.1706 5.84513Z" fill="#EDEDED"/>
</svg>
